<svg width="572" height="572" viewBox="0 0 572 572" fill="none" xmlns="http://www.w3.org/2000/svg">
<path d="M282.213 17.5671C277.747 19.2105 273.954 23.045 271.047 28.9021C264.305 42.6389 264.052 62.4857 270.457 76.686L271.679 79.3828V91.5184C271.679 101.674 271.595 103.696 271.089 103.696C266.328 103.696 249.641 106.435 240.877 108.711C215.636 115.158 191.955 127.04 171.434 143.474L165.998 147.856L157.444 139.26C149.101 130.875 148.89 130.622 147.753 127.546C142.317 112.587 127.316 98.0919 112.189 93.0775C108.017 91.7291 102.118 91.7291 99.126 93.0775C96.7241 94.2152 95.4179 95.3108 94.0695 97.3755C88.9287 105.508 94.7858 121.942 107.343 134.457C113.453 140.609 120.11 144.991 127.779 147.941C130.055 148.783 131.235 149.795 138.988 157.548L147.711 166.186L144.045 170.695C124.198 195.303 110.967 224.589 105.657 255.56C104.562 261.965 103.55 270.055 103.55 272.288C103.55 273.047 103.045 273.089 91.4991 273.089C80.1641 273.089 79.3214 273.047 78.0572 272.246C75.9925 270.982 71.2731 269.297 67.2279 268.412C46.8333 263.945 24.1634 270.055 18.0956 281.685C17.1685 283.455 17 284.382 17 286.994C17 291.124 18.0956 293.483 21.8037 297.149C32.633 307.894 58.9689 310.465 76.5403 302.543L79.2371 301.321H91.3727C102.708 301.321 103.55 301.363 103.55 302.037C103.593 304.06 104.52 311.518 105.489 317.333C110.503 347.714 123.566 376.874 143.075 401.229L147.711 407.002L138.988 415.598C130.771 423.815 130.181 424.278 127.569 425.205C112.863 430.304 97.9461 445.684 92.9318 460.811C91.5834 464.983 91.5834 470.882 92.9318 473.874C95.6286 479.731 101.275 481.922 109.365 480.195C125.209 476.866 141.179 462.37 147.753 445.347C148.806 442.692 149.438 441.934 157.444 433.886L165.998 425.289L170.549 428.913C195.157 448.802 224.443 462.076 255.414 467.343C261.819 468.438 269.909 469.45 272.143 469.45C272.901 469.45 272.943 469.955 272.943 481.501C272.943 492.836 272.901 493.679 272.1 494.943C270.836 497.008 269.151 501.727 268.266 505.772C263.799 526.167 269.909 548.837 281.539 554.904C283.309 555.831 284.236 556 286.849 556C290.978 556 293.338 554.904 297.004 551.196C307.749 540.367 310.319 514.031 302.397 496.46L301.175 493.763V481.627C301.175 471.472 301.26 469.45 301.765 469.45C306.527 469.45 323.213 466.711 331.978 464.435C357.218 457.988 380.899 446.105 401.42 429.672L406.856 425.289L415.41 433.886C423.753 442.271 423.964 442.524 425.102 445.6C430.537 460.559 445.538 475.054 460.666 480.068C464.837 481.417 470.737 481.417 473.728 480.068C476.13 478.931 477.436 477.835 478.785 475.77C483.926 467.638 478.068 451.204 465.512 438.689C459.402 432.537 452.744 428.155 445.075 425.205C442.799 424.362 441.62 423.351 433.866 415.598L425.144 406.96L428.81 402.451C448.657 377.843 461.888 348.557 467.197 317.586C468.293 311.181 469.304 303.091 469.304 300.857C469.304 300.099 469.81 300.057 481.355 300.057C492.69 300.057 493.533 300.099 494.797 300.9C496.862 302.164 501.581 303.849 505.626 304.734C526.021 309.201 548.691 303.091 554.759 291.461C555.686 289.691 555.854 288.764 555.854 286.151C555.854 282.022 554.759 279.662 551.051 275.996C540.221 265.251 513.885 262.681 496.314 270.603L493.617 271.825H481.482C470.147 271.825 469.304 271.783 469.304 271.066C469.262 269.086 468.335 261.627 467.366 255.813C462.351 225.431 449.289 196.272 429.779 171.917L425.144 166.144L433.866 157.548C442.083 149.331 442.673 148.868 445.286 147.941C459.991 142.842 474.908 127.462 479.923 112.334C481.271 108.163 481.271 102.263 479.923 99.2717C477.226 93.4146 471.579 91.2235 463.489 92.9511C447.645 96.28 431.675 110.775 425.102 127.799C424.048 130.453 423.416 131.212 415.41 139.26L406.856 147.856L402.305 144.232C377.697 124.344 348.411 111.07 317.44 105.803C311.035 104.707 302.945 103.696 300.712 103.696C299.953 103.696 299.911 103.191 299.911 91.6448C299.911 80.3098 299.953 79.4671 300.754 78.203C302.018 76.1382 303.704 71.4188 304.588 67.3736C309.055 46.9791 302.861 24.1406 291.315 18.2835C288.576 16.8929 284.868 16.598 282.213 17.5671ZM306.021 136.1C313.606 137.153 317.356 137.828 323.887 139.471C380.478 153.671 424.849 200.275 436.184 257.498C438.417 268.707 438.712 272.33 438.712 287.205C438.712 299.509 438.628 301.827 437.785 307.431C434.751 327.278 429.063 344.386 420.087 360.398C405.761 386.017 385.872 405.906 360.252 420.233C344.24 429.208 327.132 434.897 307.285 437.931C301.681 438.773 299.363 438.858 287.059 438.858C272.185 438.858 268.561 438.563 257.352 436.33C199.792 424.91 153.357 380.455 139.157 323.232C136.038 310.676 134.943 301.11 134.943 286.784C134.985 274.269 135.533 268.285 137.724 257.498C150.618 193.07 204.217 143.516 269.151 135.973C277.62 135.004 278.21 134.962 289.377 135.131C296.709 135.215 301.555 135.51 306.021 136.1Z" fill="white"/>
<path d="M270.836 158.98V167.113L276.314 167.029C279.306 166.987 281.792 166.987 281.792 167.029C281.792 167.113 281.118 168.503 280.317 170.147C278.505 173.813 276.525 181.355 275.682 187.802C274.881 194.039 274.881 206.512 275.682 213.127C276.904 222.987 279.854 232.089 283.056 235.713C286.006 239.084 288.829 239.463 291.652 236.851C297.888 231.078 302.018 212.116 300.796 194.713C299.953 182.451 298.057 174.74 294.096 167.239C294.012 167.071 296.414 166.987 299.448 167.029L304.968 167.113V158.98V150.89H287.902H270.836V158.98Z" fill="white"/>
<path d="M190.649 190.837L178.134 203.351L183.738 208.956L189.342 214.56L193.261 210.515C195.452 208.324 197.264 206.554 197.306 206.596C197.348 206.68 197.728 207.649 198.107 208.829C199.329 212.158 203.079 218.605 206.492 223.156C216.563 236.598 231.353 248.944 242.225 252.905C245.175 254.001 246.228 254.169 248.63 254.043C251.032 253.916 251.622 253.706 252.591 252.737C253.56 251.767 253.771 251.177 253.897 248.776C254.15 244.098 251.537 237.946 245.849 229.898C236.326 216.414 219.555 202.172 208.683 198.253C207.546 197.874 206.534 197.494 206.45 197.452C206.408 197.41 208.178 195.598 210.369 193.407L214.372 189.446L208.81 183.884L203.206 178.28L190.649 190.837Z" fill="white"/>
<path d="M365.014 183.757L359.536 189.235L363.455 193.154C365.562 195.303 367.331 197.199 367.331 197.368C367.331 197.536 367.078 197.663 366.784 197.663C365.688 197.663 357.85 201.75 354.311 204.152C348.58 208.071 345.125 210.978 339.521 216.582C333.326 222.777 330.166 226.569 326.289 232.468C323.087 237.44 321.275 241.064 320.348 244.646C319.547 247.848 319.547 249.618 320.39 251.43C322.708 256.276 331.304 254.633 342.259 247.259C356.46 237.693 370.112 222.187 375.59 209.335L376.812 206.512L380.815 210.515L384.818 214.518L390.296 209.04L395.774 203.562L383.344 191.005C376.517 184.052 370.829 178.364 370.702 178.364C370.576 178.322 368.005 180.723 365.014 183.757Z" fill="white"/>
<path d="M280.949 245.152C264.01 247.975 250.442 260.153 245.975 276.671C244.585 281.811 244.374 289.733 245.512 295.253C249.304 313.625 264.305 327.193 282.93 329.09C298.858 330.733 314.154 323.022 322.96 308.99C330.629 296.728 331.219 280.969 324.52 267.99C317.061 253.537 302.524 244.73 286.554 244.899C284.068 244.941 281.539 245.067 280.949 245.152ZM292.537 263.608C298.563 265.209 304.546 269.634 307.622 274.817C313.269 284.382 311.752 296.096 303.872 304.018C299.195 308.653 293.253 311.139 286.806 311.139C280.149 311.097 275.008 308.906 269.994 303.849C263.842 297.697 261.524 289.817 263.462 281.559C265.443 273.173 272.901 265.673 281.202 263.65C284.531 262.849 289.503 262.849 292.537 263.608Z" fill="white"/>
<path d="M284.152 278.44C282.171 278.988 280.064 280.842 279.011 283.033C274.502 292.261 285.921 300.605 293.169 293.315C297.299 289.228 296.751 282.991 291.989 279.662C290.514 278.609 289.714 278.356 287.565 278.314C286.132 278.23 284.573 278.314 284.152 278.44Z" fill="white"/>
<path d="M150.744 285.941V303.006H158.877H166.967L166.883 297.739C166.841 294.832 166.967 292.472 167.178 292.472C167.347 292.472 168.611 293.02 169.959 293.694C174.805 296.096 182.937 297.992 191.828 298.793C207.672 300.225 226.297 297.234 234.177 291.966C244.247 285.267 235.778 277.345 215.046 274.058C208.431 273.005 191.997 273.005 185.634 274.058C179.44 275.111 174.046 276.628 170.254 278.356C168.484 279.157 166.967 279.831 166.883 279.831C166.799 279.831 166.757 277.429 166.799 274.437L166.841 269.086L158.793 268.959L150.744 268.875V285.941Z" fill="white"/>
<path d="M406.94 276.46V281.938L405.171 281.053C397.923 277.345 389.116 275.617 376.138 275.322C366.573 275.069 361.558 275.448 354.269 276.923C340.869 279.578 333.368 284.972 335.854 290.154C338.425 295.506 350.139 299.593 366.741 300.9C380.015 301.953 396.237 299.593 404.37 295.464L406.94 294.158V299.635V305.113H414.947H422.953V288.048V270.982H414.947H406.94V276.46Z" fill="white"/>
<path d="M244.29 320.536C232.744 323.612 214.625 338.866 204.006 354.456C201.604 357.996 197.517 365.834 197.517 366.929C197.517 367.224 197.391 367.477 197.222 367.477C197.054 367.477 195.157 365.707 193.008 363.6L189.09 359.681L183.527 365.244C180.451 368.32 178.049 370.89 178.176 370.932C178.302 371.016 183.991 376.663 190.901 383.489L203.416 395.92L208.894 390.442L214.372 384.964L210.285 380.877C206.829 377.379 206.324 376.747 207.04 376.494C223.558 371.101 247.576 347.335 253.096 330.902C254.108 327.868 254.234 324.117 253.349 322.432C252.127 320.03 248.798 319.314 244.29 320.536Z" fill="white"/>
<path d="M322.37 320.704C318.831 322.853 318.831 327.151 322.455 334.862C325.699 341.857 330.924 348.894 338.804 356.858C344.029 362.168 347.442 365.117 352.92 369.036C356.502 371.606 364.381 375.904 366.488 376.452C367.5 376.705 367.331 376.916 363.539 380.75L359.536 384.753L365.14 390.358L370.702 395.92L383.217 383.363L395.774 370.848L390.212 365.286L384.607 359.681L380.604 363.684C376.77 367.477 376.559 367.645 376.306 366.634C375.759 364.527 371.46 356.648 368.89 353.066C364.971 347.588 362.022 344.175 356.712 338.95C348.748 331.07 341.711 325.845 334.717 322.6C328.607 319.735 324.856 319.187 322.37 320.704Z" fill="white"/>
<path d="M284.11 335.832C279.222 337.854 274.924 348.936 273.322 363.642C272.606 370.384 273.028 383.489 274.207 390.02C275.134 395.372 277.494 402.999 278.842 405.232C279.306 405.948 279.685 406.665 279.685 406.833C279.685 406.96 277.241 407.086 274.207 407.086H268.729V415.092V423.098H285.795H302.861V415.092V407.086H297.467H292.074L293.422 404.221C300.88 388.798 300.712 357.153 293.169 342.194C290.472 336.843 287.228 334.567 284.11 335.832Z" fill="white"/>
</svg>
