<svg width="625" height="120" viewBox="0 0 625 120" fill="none" xmlns="http://www.w3.org/2000/svg">
<path d="M67.55 0.299992H113.6V24.9H107.6L78.65 76.8V92.4H86.15V117H29.15V92.4H36.65V76.8L6.8 24.9H0.8V0.299992H58.85V24.9H53.6L62.45 48.15H63.95L72.8 24.9H67.55V0.299992Z" fill="white"/>
<path d="M199.599 92.4V117H159.999V106.8C157.799 110 154.699 112.85 150.699 115.35C146.799 117.85 141.999 119.1 136.299 119.1C128.799 119.1 122.899 117.1 118.599 113.1C114.299 109.1 112.149 103.45 112.149 96.15C112.149 77.25 128.199 67.55 160.299 67.05C159.999 63.65 158.699 61.35 156.399 60.15C154.099 58.85 150.199 58.2 144.699 58.2C140.199 58.2 135.349 58.7 130.149 59.7C125.049 60.6 120.349 61.85 116.049 63.45V35.85C121.349 34.55 127.099 33.5 133.299 32.7C139.499 31.9 145.549 31.5 151.449 31.5C166.349 31.5 176.999 34.2 183.399 39.6C189.799 45 192.999 53.35 192.999 64.65V92.4H199.599ZM159.999 81.9C155.499 81.9 151.999 82.5 149.499 83.7C147.099 84.9 145.899 86.9 145.899 89.7C145.899 91.4 146.399 92.8 147.399 93.9C148.499 94.9 149.999 95.4 151.899 95.4C154.499 95.4 156.499 94.3 157.899 92.1C159.299 89.9 159.999 86.8 159.999 82.8V81.9Z" fill="white"/>
<path d="M249.284 119.1C234.984 119.1 223.834 115.4 215.834 108C207.834 100.5 203.834 89.6 203.834 75.3C203.834 61 207.834 50.15 215.834 42.75C223.834 35.25 234.934 31.5 249.134 31.5C256.034 31.5 262.634 32.45 268.934 34.35C275.234 36.25 280.134 38.4 283.634 40.8V70.5H257.834V67.8C257.834 64.5 257.134 62.1 255.734 60.6C254.334 59 252.134 58.2 249.134 58.2C243.334 58.2 240.434 61.4 240.434 67.8V80.7C240.434 88.5 244.884 92.4 253.784 92.4C262.084 92.4 271.734 91.5 282.734 89.7V113.25C279.334 114.75 274.534 116.1 268.334 117.3C262.234 118.5 255.884 119.1 249.284 119.1Z" fill="white"/>
<path d="M388.263 92.4V117H340.863V92.4H347.163V67.8C347.163 64.5 346.463 62.1 345.063 60.6C343.663 59 341.563 58.2 338.763 58.2C332.763 58.2 329.763 61.4 329.763 67.8V92.4H336.063V117H288.663V92.4H295.263V24.9H288.663V0.299992H329.763V45.3C333.463 40.7 337.463 37.25 341.763 34.95C346.063 32.65 351.063 31.5 356.763 31.5C365.063 31.5 371.263 34.1 375.363 39.3C379.563 44.5 381.663 51.65 381.663 60.75V92.4H388.263Z" fill="white"/>
<path d="M430.156 119.1C419.556 119.1 411.556 116.55 406.156 111.45C400.856 106.25 398.206 97.55 398.206 85.35V58.2H391.606V33.6C395.406 33.6 398.256 32.65 400.156 30.75C402.056 28.75 403.006 26.05 403.006 22.65V15.9H434.806V33.6H455.056V58.2H434.806V82.8C434.806 86.1 435.506 88.55 436.906 90.15C438.406 91.65 440.606 92.4 443.506 92.4C447.306 92.4 451.456 91.95 455.956 91.05V114.6C453.156 115.7 449.356 116.7 444.556 117.6C439.856 118.6 435.056 119.1 430.156 119.1Z" fill="white"/>
<path d="M505.482 119.1C491.282 119.1 480.182 115.4 472.182 108C464.182 100.5 460.182 89.6 460.182 75.3C460.182 61 464.182 50.15 472.182 42.75C480.182 35.25 491.282 31.5 505.482 31.5C519.582 31.5 529.732 35.2 535.932 42.6C542.232 49.9 545.382 59 545.382 69.9V80.7H496.782V81.6C496.782 85.3 497.882 88.05 500.082 89.85C502.282 91.55 505.932 92.4 511.032 92.4C517.132 92.4 522.932 91.95 528.432 91.05C533.932 90.15 538.732 89 542.832 87.6V111.6C539.332 113.5 534.182 115.25 527.382 116.85C520.682 118.35 513.382 119.1 505.482 119.1ZM514.182 64.2V62.4C514.182 59 513.432 56.55 511.932 55.05C510.532 53.55 508.382 52.8 505.482 52.8C502.582 52.8 500.382 53.6 498.882 55.2C497.482 56.7 496.782 59.1 496.782 62.4V64.2H514.182Z" fill="white"/>
<path d="M613.895 31.5C615.895 31.5 617.795 31.7 619.595 32.1C621.395 32.5 622.895 33 624.095 33.6V62.25C619.995 60.55 615.595 59.7 610.895 59.7C604.595 59.7 599.745 61.35 596.345 64.65C592.945 67.95 591.245 72.85 591.245 79.35V92.4H604.745V117H550.145V92.4H556.745V58.2H550.145V33.6H591.245V44.55C594.045 40.35 597.245 37.15 600.845 34.95C604.445 32.65 608.795 31.5 613.895 31.5Z" fill="white"/>
</svg>
